# xmcd
#
# Track frame offsets:
#	150
#	22540
#	38167
#	61470
#	82290
#	103660
#	122147
#	137707
#	152677
#	167365
#	180657
#	202712
#
# Disc length: 2977 seconds
#
# Revision: 1
# Processed by: cddbd v1.5.1PL0 Copyright (c) Steve Scherf et al.
# Submitted via: audiograbber 1.83.01
#
DISCID=910b9f0c
DTITLE=Various Artist - Williams-Sonoma - Better Than Anything - Drink Companion Serie
DTITLE=s
DYEAR=2003
DGENRE=Jazz
TTITLE0=Nnenna Freelon - Better Than Anything
TTITLE1=Mel Torme - Hi-Fly
TTITLE2=Paula West - Fly Me To The Moon
TTITLE3=Karrin Allyson - Long As You're Living
TTITLE4=Oscar Peterson and Itzhak Perlman - Blue Skies
TTITLE5=Jane Monheit - Twisted
TTITLE6=Steve Tyrell - It Had To Be You
TTITLE7=Thelonious Monk - Five Spot Blues
TTITLE8=Peggy Lee - Why Don't You Do Right (And Get Me Some Money Too)
TTITLE9=Bobby Darin - All Night Long
TTITLE10=Dave Brubeck Quartet - When You Wish Upon A Star
TTITLE11=Kyle Eastwood With Julia Fordham - In The Wee Small Hours
EXTD=
EXTT0=
EXTT1=
EXTT2=
EXTT3=
EXTT4=
EXTT5=
EXTT6=
EXTT7=
EXTT8=
EXTT9=
EXTT10=
EXTT11=
PLAYORDER=
